<?xml version="1.0" standalone="no"?><!DOCTYPE svg PUBLIC "-//W3C//DTD SVG 1.1//EN" "http://www.w3.org/Graphics/SVG/1.1/DTD/svg11.dtd"><svg t="1680367652481" class="icon" viewBox="0 0 1024 1024" version="1.1" xmlns="http://www.w3.org/2000/svg" p-id="3382" xmlns:xlink="http://www.w3.org/1999/xlink" width="32" height="32"><path d="M154.85714286 149.43915344m81.63265305 0l551.02040818 0q81.63265306 0 81.63265305 81.63265306l0 551.02040817q0 81.63265306-81.63265305 81.63265306l-551.02040818 0q-81.63265306 0-81.63265305-81.63265306l0-551.02040817q0-81.63265306 81.63265305-81.63265306Z" fill="#1F0040" p-id="3383"></path><path d="M787.51020409 882.09221466H236.48979591a100.11224491 100.11224491 0 0 1-99.99999999-99.99999999V231.0718065a100.11224491 100.11224491 0 0 1 99.99999999-99.99999999h551.02040818a100.11224491 100.11224491 0 0 1 99.99999999 99.99999999v551.02040817a100.11224491 100.11224491 0 0 1-99.99999999 99.99999999zM236.48979591 167.80650038a63.3367347 63.3367347 0 0 0-63.26530612 63.26530612v551.02040817a63.3367347 63.3367347 0 0 0 63.26530612 63.26530612h551.02040818a63.3367347 63.3367347 0 0 0 63.26530612-63.26530612V231.0718065a63.3367347 63.3367347 0 0 0-63.26530612-63.26530612z" fill="#D291FF" p-id="3384"></path><path d="M377.85714286 358.01058201h54.28571428l112.24489796 291.42857144h-54.69387754l-27.34693878-77.14285715h-116.32653061l-27.34693878 77.14285715h-52.65306122z m-17.95918368 175.51020409h88.97959184l-43.67346938-125.30612245h-1.22448981zM601.93877551 555.96976569c0 33.06122448 17.95918367 62.44897959 56.73469388 62.4489796 26.93877552 0 43.26530613-11.83673469 51.42857143-35.10204082h44.08163265c-10.20408163 46.12244898-49.3877551 71.83673469-95.51020408 71.83673469-66.12244899 0-103.26530612-46.12244898-103.26530613-111.02040817 0-60 39.18367347-111.42857143 102.04081633-111.42857142 66.53061225 0 107.34693878 60 99.59183674 123.26530612z m108.57142857-30.6122449c-1.63265306-29.3877551-21.63265305-55.91836734-53.06122449-55.91836735-32.24489796 0-54.28571429 24.48979592-55.51020408 55.91836735z" fill="#D291FF" p-id="3385"></path></svg>