<svg t="1706349192619" class="icon" viewBox="0 0 1024 1024" version="1.1" xmlns="http://www.w3.org/2000/svg" p-id="4111" width="128" height="128"><path d="M512 962c248.53124971 0 450-201.46875029 450-450S760.53124971 62 512 62 62 263.46875029 62 512s201.46875029 450 450 450z" fill="#98DFE9" p-id="4112"></path><path d="M729.87499971 535.68125c0-1.03124971-0.26250029-1.76249971-0.86249971-2.25-0.63749971-0.50625-1.76249971-0.76875029-3.31875-0.76875029h-2.25v6.075h2.7c2.51250029 0 3.75000029-1.03124971 3.75000029-3.05624971z m3.50625058 12.67499971h-3.07500029l-1.96875-4.275c-0.99375029-2.15624971-2.06250029-3.22499971-3.22499971-3.22499971h-1.66875029v7.49999971h-2.54999971v-17.83125h5.09999942c2.25 0 3.95624971 0.48750029 5.13750058 1.50000029 0.97499971 0.86249971 1.48124971 1.96875 1.48124971 3.35625029 0 1.21875029-0.41249971 2.25-1.21875029 3.11249971a6.13125 6.13125 0 0 1-3.375 1.74375v0.09375029c0.99375029 0.225 2.00625029 1.31249971 3.00000058 3.28124971l2.3625 4.74374971z m5.625-8.73749971a11.8125 11.8125 0 0 0-3.61875058-8.81250029 12.33749971 12.33749971 0 0 0-8.90624971-3.54375 12.24375029 12.24375029 0 0 0-12.56249971 12.35625029c0 3.56249971 1.2375 6.525 3.69374942 8.8875 2.43749971 2.3625 5.38125029 3.54375 8.86875029 3.54375a12.18750029 12.18750029 0 0 0 8.8875-3.58125029 11.8125 11.8125 0 0 0 3.65625-8.84999971z m1.72499942-0.07499971c0 3.9375-1.36874971 7.23750029-4.12499971 9.88124942a14.02499971 14.02499971 0 0 1-10.18125 4.03125029 14.0625 14.0625 0 0 1-10.14374971-3.89999971 13.21875 13.21875 0 0 1-4.03125029-9.91875058 13.93125029 13.93125029 0 0 1 14.2875-13.91249971c3.97500029 0 7.3125 1.29375 10.03124971 3.84374971a13.12499971 13.12499971 0 0 1 4.1625 9.97500058zM354.12499971 589.24999971h-8.775v-49.44375c0-3.91875029 0.26250029-8.6625 0.71250029-14.2875h-0.18749971a46.40625 46.40625 0 0 1-2.25 7.12500029l-25.46250029 56.62500029h-4.275l-25.5375-56.19375a40.78125 40.78125 0 0 1-2.23125029-7.55625058h-0.18749971c0.26250029 2.96250029 0.41249971 7.74375029 0.41249971 14.38125029v49.34999971h-8.4375v-73.64999971h11.56875029l22.91249971 51.37499971c1.72500029 3.84374971 2.85000029 6.78750029 3.375 8.81250029h0.37500029a155.43749971 155.43749971 0 0 1 3.58125029-9.03750029l23.41874971-51.14999971h10.96875v73.64999971zM381.08750029 589.24999971h-8.51250058v-52.59375h8.51250058v52.59375z m1.48124971-71.4375c0 1.55625029-0.5625 2.85000029-1.64999971 3.90000058a5.45625 5.45625 0 0 1-3.97500029 1.59374971 5.55000029 5.55000029 0 0 1-3.9375-1.53749971 5.21250029 5.21250029 0 0 1-1.63125-3.95625058 5.4 5.4 0 0 1 5.55000029-5.43749942c1.575 0 2.90625029 0.52499971 3.99375 1.575a5.15625029 5.15625029 0 0 1 1.64999971 3.86249942zM434.33749971 586.8125a27.74999971 27.74999971 0 0 1-14.625 3.7125c-7.65 0-13.79999971-2.49374971-18.52499971-7.49999971-4.55625-4.85624971-6.8625-11.11875029-6.8625-18.80625058 0-8.60625 2.51250029-15.56250029 7.5375-20.86875 5.02499971-5.32500029 11.75625-7.96875029 20.25-7.96874942 4.63124971 0 8.73749971 0.9 12.33749971 2.66249971v8.64375029a21.88125 21.88125 0 0 0-12.7125-4.12500058c-5.43750029 0-9.86249971 1.87499971-13.29374971 5.625-3.56249971 3.80625029-5.36249971 8.90624971-5.36249971 15.28125029 0 6.11250029 1.64999971 10.95000029 4.93124942 14.53124971 3.28124971 3.56249971 7.66874971 5.34375 13.20000029 5.34375 4.65000029 0 9.01874971-1.50000029 13.12499971-4.51874971v7.9875zM475.1 545.1875c-1.50000029-1.125-3.67499971-1.6875-6.54374971-1.6875a10.64999971 10.64999971 0 0 0-8.73750058 4.6125c-2.68125029 3.44999971-4.01249971 8.23124971-4.01249971 14.32500029v26.81249942h-8.55v-52.59375h8.55v10.83750029h0.18749971a18.45 18.45 0 0 1 5.81250058-8.8875 12.89999971 12.89999971 0 0 1 8.15625-2.86875 14.0625 14.0625 0 0 1 5.11875 0.71250029v8.73749971zM522.6875 563.05625029c0-6.75-1.53749971-11.86875-4.63124971-15.4125-2.99999971-3.375-7.16249971-5.0625-12.56250058-5.0625-5.30624971 0-9.5625 1.6875-12.74999942 5.13749971-3.375 3.65625-5.0625 8.81250029-5.0625 15.54374971 0 6.28125029 1.61250029 11.23125029 4.85624971 14.75625058 3.20625 3.56249971 7.5375 5.32500029 12.95624971 5.32499942 5.625 0 9.93750029-1.8 12.86250029-5.4 2.88749971-3.50624971 4.33125-8.45624971 4.33125-14.88749942z m8.75625029-0.30000058c0 8.38125-2.40000029 15.11250029-7.18125029 20.15625058-4.79999971 5.0625-11.26874971 7.59375-19.38750029 7.59375-8.00624971 0-14.38125029-2.53125-19.06875-7.59375-4.57499971-4.87500029-6.88124971-11.32499971-6.88124971-19.35 0-9.15000029 2.60624971-16.2 7.81875-21.18750029 4.8375-4.66875 11.28750029-6.99374971 19.36874971-6.99374971 7.94999971 0 14.175 2.43749971 18.65625029 7.27499971 4.44375 4.87500029 6.67500029 11.56875029 6.67500029 20.09999971zM573.80000029 575.18749971c0 4.31250029-1.63125 7.875-4.91250058 10.70625058-3.56249971 3.07500029-8.45624971 4.63124971-14.625 4.63124971a26.4375 26.4375 0 0 1-13.23749971-3.18750029v-9.03749942c4.18124971 3.35625029 8.81250029 5.04375029 13.87500029 5.04374942 6.75 0 10.125-2.45625029 10.125-7.34999942 0-2.06250029-0.73125-3.75000029-2.23125029-5.0625-1.50000029-1.36874971-4.40624971-2.96250029-8.75625029-4.85625058-4.46249971-1.9125-7.65-3.89999971-9.52499971-5.9625a13.42500029 13.42500029 0 0 1-3.375-9.48749942c0-4.36875029 1.76249971-8.00624971 5.24999971-10.89375029 3.50624971-2.90625029 8.02500029-4.34999971 13.55625-4.34999971 4.23749971 0 8.02500029 0.80624971 11.40000029 2.45624942v8.47500029a20.32499971 20.32499971 0 0 0-12.11249971-3.75000029 10.575 10.575 0 0 0-6.78750029 2.06250029 6.525 6.525 0 0 0-2.56875029 5.2875c0 2.32499971 0.73125 4.12499971 2.15625058 5.43750029 1.25624971 1.19999971 3.9375 2.66249971 8.00624971 4.34999971 4.55625 1.87499971 7.83749971 3.84374971 9.84375 5.83125029a12.88125 12.88125 0 0 1 3.91875029 9.65624942zM626.00000029 563.05625029c0-6.75-1.55625029-11.86875-4.65000029-15.4125-2.98125-3.375-7.18125029-5.0625-12.56249971-5.0625-5.2875 0-9.5625 1.6875-12.75000029 5.13749971-3.375 3.65625-5.04375029 8.81250029-5.04375029 15.54374971 0 6.28125029 1.61250029 11.23125029 4.80000058 14.75625058 3.2625 3.56249971 7.59375 5.32500029 13.01249971 5.32499942 5.625 0 9.9-1.8 12.86250029-5.4 2.86875-3.50624971 4.31250029-8.45624971 4.31249942-14.88749942z m8.775-0.30000058c0 8.38125-2.43749971 15.11250029-7.21875058 20.15625058-4.79999971 5.0625-11.25 7.59375-19.38749942 7.59375-8.00624971 0-14.38125029-2.53125-19.06875-7.59375-4.55625-4.87500029-6.8625-11.32499971-6.8625-19.35 0-9.15000029 2.62500029-16.2 7.79999942-21.18750029 4.81875029-4.66875 11.28750029-6.99374971 19.38750029-6.99374971 7.94999971 0 14.15625029 2.43749971 18.63749971 7.27499971 4.44375 4.87500029 6.69375 11.56875029 6.69375 20.09999971zM672.40625029 518.80625a11.5875 11.5875 0 0 0-5.68125-1.38750029c-5.9625 0-8.94375 3.7125-8.94375 11.1375v8.1h12.50624971v7.12500029h-12.50624971v45.46874971h-8.55v-45.45h-9.07500058v-7.12499942h9.07500058v-8.53125029c0-5.79375 1.8-10.33125029 5.45625-13.6125a16.49999971 16.49999971 0 0 1 11.53125-4.25625029 16.875 16.875 0 0 1 6.1875 0.93750029v7.57500029zM706.11875 588.725a16.3125 16.3125 0 0 1-8.02500029 1.6875c-9.31875029 0-13.96874971-5.15625029-13.96874971-15.50625029v-31.10625h-9.15000029v-7.12499942h9.15000029v-12.84375058c2.71874971-0.84375 5.56875-1.78125029 8.55-2.73749942v15.56249942h13.44375v7.14375h-13.44375v29.68125029c0 3.52500029 0.60000029 6.03749971 1.81874971 7.49999971 1.2375 1.50000029 3.24375029 2.25 6.09375058 2.25 2.1375 0 3.97500029-0.5625 5.53124971-1.6875v7.18125029zM244.43749971 794.50624971c0 4.12499971-1.50000029 7.68750029-4.51874971 10.6875a14.90625 14.90625 0 0 1-10.93124971 4.51875058 14.30624971 14.30624971 0 0 1-10.65000058-4.5 14.85 14.85 0 0 1-4.3875-10.70625058c0-4.23749971 1.4625-7.81875 4.3875-10.78124942a14.36249971 14.36249971 0 0 1 10.65000058-4.44375c4.275 0 7.93125 1.50000029 10.93124971 4.5 2.99999971 3.01875029 4.5 6.59999971 4.5 10.72499942zM435.65000029 806.61875029h-27.86250058l-101.09999971-153.9a70.29375029 70.29375029 0 0 1-6.13125-12.13125029h-0.82500029c0.71250029 4.12499971 1.08749971 12.97500029 1.08750058 26.53125029v139.5h-22.96875058V613.53125h29.8125l98.06250058 151.48125c3.91875029 6.00000029 6.58125 10.31249971 7.94999971 12.89999971h0.54375029c-0.91874971-5.55000029-1.38750029-15.01875-1.38750029-28.38749942v-135.99375029h22.81875029v193.08750029zM582.85625029 806.61875029h-103.8375V613.53125h99.3375v20.45625029h-76.3875v64.2375h70.78124971v20.45624942h-70.78124971v67.46250058h80.8875v20.475zM740.33749971 633.98750029h-56.43749971v172.63125h-22.93125029v-172.63125h-56.54999971v-20.45625029h135.93750029v20.45625029z" fill="#000000" p-id="4113"></path><path d="M427.86874971 280.025c22.14375029 66.76875 30.54375 185.86874971 95.30625058 185.86874971 4.93125029 0 9.93750029-0.46874971 14.92499971-1.40625-58.87500029-13.53750029-65.86875-131.34375-101.79375029-192.35624942-2.86875 2.5875-5.68125 5.21250029-8.4375 7.89374971" fill="#0994DC" p-id="4114"></path><path d="M436.30624971 272.13125029c35.92500029 61.01250029 42.91875 178.81875 101.79375029 192.33749971 4.63124971-0.82500029 9.26250029-2.09999971 13.91249971-3.69375029-52.85625029-25.51875029-67.46249971-139.91249971-108.26249942-194.99999942-2.53125 2.08125-5.00625 4.20000029-7.44375058 6.37499971" fill="#0E76BC" p-id="4115"></path><path d="M488.07500029 235.85000029c-4.91249971 0-9.91874971 0.48750029-14.92500058 1.42499971-13.12499971 2.43749971-26.4375 7.9875-39.84374971 16.40625029 3.65625 3.56249971 7.14375 7.65 10.44375029 12.11249971 13.65000029-11.17500029 27.20625029-19.42499971 40.725-24.37499971 4.93125029-1.81874971 10.0125-3.22499971 15.1875-4.1625a47.43749971 47.43749971 0 0 0-11.5875-1.40625z" fill="#14559A" p-id="4116"></path><path d="M593.26250029 437.26249971c5.625-4.44375 11.06250029-9.13124971 16.25625-14.0625-22.5-66.43125-30.56249971-187.23750029-95.81250058-187.23749942-4.65000029 0-9.35624971 0.43125029-14.0625 1.27499942 59.43750029 14.56875 67.03125029 141.975 93.61875058 200.025" fill="#33BDF2" p-id="4117"></path><path d="M499.66250029 237.25625029a47.49374971 47.49374971 0 0 0-11.5875-1.40625l25.65 0.09374942c-4.66875 0-9.37500029 0.43125029-14.0625 1.31250058" fill="#3092C4" p-id="4118"></path><path d="M592.11874971 451.3625a95.625 95.625 0 0 1-7.34999942-7.81875 135.5625 135.5625 0 0 1-32.75625058 17.25000029 51.05625029 51.05625029 0 0 0 22.6125 5.09999942c12.18750029 0 21.825-1.42499971 30.0375-5.30624971a56.94374971 56.94374971 0 0 1-12.54375-9.225z" fill="#1969BC" p-id="4119"></path><path d="M484.45624971 241.41875029c53.2125 27.43125029 57.84374971 151.66874971 100.31250058 202.12499971 2.88749971-2.025 5.71875029-4.12499971 8.49375-6.3-26.58750029-58.03125029-34.2-185.43750029-93.6-200.00625029a93.0375 93.0375 0 0 0-15.1875 4.18125058z" fill="#36AEE8" p-id="4120"></path><path d="M443.75000029 265.79375c40.78125 55.06875 55.40625 169.46250029 108.24374971 195.00000029a135.5625 135.5625 0 0 0 32.77500029-17.25000029c-42.46875-50.43750029-47.09999971-174.69375029-100.31250058-202.12499971-13.5 4.95-27.07499971 13.20000029-40.725 24.37499971" fill="#1487CB" p-id="4121"></path><path d="M401.75 278.43125029c-6.37499971 14.24999971-12.91875029 33.00000029-20.8125 57.43125 15.69375-21.80625029 31.36875029-40.59375029 46.93124971-55.81875058a165.78749971 165.78749971 0 0 0-6.93749971-17.83125c-6.67500029 5.0625-13.08750029 10.48124971-19.16250029 16.21875058" fill="#33BDF2" p-id="4122"></path><path d="M426.6125 258.10624971c-1.9125 1.33125029-3.80625029 2.7-5.66250029 4.10625 2.475 5.32500029 4.76250029 11.32499971 6.91875 17.81250029 2.75625-2.66249971 5.56875-5.30624971 8.4375-7.875a110.53125 110.53125 0 0 0-9.69374971-14.0625z" fill="#2B74B1" p-id="4123"></path><path d="M433.30625 253.68125029c-2.25 1.42499971-4.5 2.88749971-6.69375 4.40624971 3.46875029 4.23749971 6.67500029 8.94375 9.69374971 14.0625 2.43749971-2.17500029 4.91249971-4.31250029 7.44375058-6.37499971a97.81875 97.81875 0 0 0-10.44375029-12.09375" fill="#125A9E" p-id="4124"></path><path d="M796.30624971 230.76874971c-30.11249971 114.4125-92.96250029 206.30625029-145.6875 229.46250058h-0.09374942a87.88124971 87.88124971 0 0 1-2.85000029 1.19999971c-0.1125 0.07499971-0.24374971 0.09375029-0.3375 0.13124971l-0.80624971 0.30000058c-0.13124971 0.09375029-0.24374971 0.1125-0.37500029 0.14999942l-1.31249971 0.46875058-0.54375029 0.18749971a7.33124971 7.33124971 0 0 1-0.65625029 0.20625029l-0.61875 0.225-0.5625 0.18749971c-0.39375 0.09375029-0.74999971 0.18749971-1.125 0.31875029-0.16875 0-0.31875029 0.09375029-0.48749942 0.13124971l-0.75000058 0.20625029a16.38749971 16.38749971 0 0 1-1.35 0.35624971l-1.0125 0.225c2.41875 0.86249971 4.96874971 1.31249971 7.5375 1.31249971 49.98750029 0 100.36874971-88.29375029 183.75000029-235.08749971h-32.7375v0.01874971z" fill="#59CAF5" p-id="4125"></path><path d="M370.06250029 240.49999971c0.05625 0 0.09375029-0.07499971 0.1125-0.07499971 0.03750029 0 0.09375029 0 0.1125-0.07499971h0.05625l0.82499942-0.30000058c0.05625 0 0.09375029 0 0.15000029-0.07499971 0.07499971 0 0.13124971-0.07499971 0.20625029-0.09375029l0.88124942-0.29999971h0.03750029c0.65625029-0.18749971 1.27500029-0.43125029 1.9125-0.675 0.09375029 0 0.18749971-0.07499971 0.29999971-0.07499971 0.26250029-0.07499971 0.54375029-0.18749971 0.80625058-0.225 0.13124971-0.09375029 0.26250029-0.09375029 0.37499942-0.13125058 0.29999971-0.07499971 0.5625-0.18749971 0.84375-0.24374971 0.1125 0 0.225-0.07499971 0.30000058-0.07499971 0.93750029-0.26250029 1.83750029-0.48750029 2.75625-0.71250029 0.13124971 0 0.24374971-0.07499971 0.37499942-0.07499971a5.38125029 5.38125029 0 0 1 0.80625058-0.16875c0.1125-0.07499971 0.26250029-0.07499971 0.37499942-0.1125 0.28125-0.07499971 0.54375029-0.07499971 0.82500029-0.15000029h0.18749971l1.6875-0.29999971h0.31875029c0.26250029-0.07499971 0.50625-0.07499971 0.76875029-0.13125058 0.15000029 0 0.29999971-0.07499971 0.43124942-0.07499971 0.26250029 0 0.50625-0.07499971 0.75000058-0.1125 0.13124971 0 0.26250029 0 0.41249971-0.07499971 0.5625-0.07499971 1.18125-0.1125 1.8-0.15000029a56.32499971 56.32499971 0 0 0-5.32500029-0.28125c-56.28750029 0-133.83749971 102.9375-168.75 236.21249971h6.71250058c11.19375-19.64999971 21.22499971-38.23125029 30.41249942-55.6875 24.46875-94.40624971 74.28750029-158.79375 118.55625029-175.85624971" fill="#05A1E6" p-id="4126"></path><path d="M401.75 278.43125029a232.875 232.875 0 0 1 19.18125-16.21875058 88.3125 88.3125 0 0 0-4.55625-8.69999942c-5.15625029 6.14999971-9.86249971 14.2875-14.625 24.93749971zM406.38124971 241.28749971c3.67499971 3.0375 6.95625029 7.21874971 9.97500058 12.22500058 0.93750029-1.16250029 1.9125-2.21249971 2.90624942-3.20625a56.51250029 56.51250029 0 0 0-12.88125-9.01875058" fill="#0D82CA" p-id="4127"></path><path d="M251.52499971 416.375c51.31874971-97.49999971 75.63750029-159.1875 118.55625029-175.87500029-44.25000029 17.06249971-94.08750029 81.45-118.55625029 175.87500029" fill="#38A7E4" p-id="4128"></path><path d="M419.26249971 250.30625029c-0.99375029 1.0125-1.93124971 2.06250029-2.90624942 3.20625 1.6875 2.8125 3.22499971 5.71875029 4.59374942 8.69999942 1.85625-1.40625 3.75000029-2.77499971 5.66250029-4.12499971a76.42500029 76.42500029 0 0 0-7.35000029-7.78124971z" fill="#127BCA" p-id="4129"></path><path d="M274.81249971 471.59375029c-0.29999971 0.09375029-0.61875 0.09375029-0.93749942 0.1125h-0.16875c-0.26250029 0-0.54375029 0.09375029-0.7875 0.09374942h-0.13125058c-0.63749971 0.05625-1.27500029 0.05625-1.87499971 0.1125h-0.18749971c51.93749971-1.42499971 75.67499971-27.05625 87.44999942-64.2375 8.96249971-28.18125 16.3125-51.93749971 22.76250029-71.84999971-21.75000029 30.18750029-43.61249971 66.16874971-65.5875 106.46250029-10.59374971 19.42499971-26.71875 27.54375029-40.53750029 29.26874971" fill="#05A1E6" p-id="4130"></path><path d="M274.81249971 471.57499971c13.81875029-1.72500029 29.94374971-9.82500029 40.53750029-29.26874971 21.97500029-40.29374971 43.83749971-76.275 65.56875029-106.46250029 7.91250029-24.46875 14.43750029-43.18125029 20.83124971-57.44999971-43.3125 40.65000029-86.81249971 108.24374971-126.93750029 193.1625" fill="#55BDF3" p-id="4131"></path><path d="M251.52499971 416.375c-9.18749971 17.4375-19.2375 36.01874971-30.41249942 55.6875H240.68750029c2.475-18.76875029 6.09374971-37.36874971 10.83749942-55.6875" fill="#05A1E6" p-id="4132"></path><path d="M386.675 236.30000029c-0.16875 0-0.28125 0.07499971-0.41249971 0.07499971-0.24374971 0.07499971-0.48750029 0.07499971-0.75000058 0.09375029-0.13124971 0-0.28125 0-0.43124942 0.07499971-0.26250029 0.07499971-0.50625 0.09375029-0.75000058 0.13124971-0.13124971 0-0.26250029 0-0.35624971 0.09375029l-1.66875029 0.28125h-0.18749971a6.525 6.525 0 0 1-0.80624971 0.15000029c-0.15000029 0.07499971-0.28125 0.07499971-0.41250058 0.1125-0.26250029 0.07499971-0.52499971 0.1125-0.7875 0.14999942-0.13124971 0.07499971-0.24374971 0.07499971-0.37499942 0.09375029a88.9875 88.9875 0 0 0-2.75625 0.69374971c-0.09375029 0-0.18749971 0.07499971-0.30000058 0.09375029a42.4125 42.4125 0 0 0-0.84375 0.24374971c-0.1125 0.07499971-0.24374971 0.07499971-0.37499942 0.1125l-0.82500029 0.24375058c-0.09375029 0-0.18749971 0.07499971-0.28125 0.07499971-0.63749971 0.225-1.25624971 0.46874971-1.9125 0.65625029l-0.86249971 0.29999971c-0.13124971 0.07499971-0.225 0.09375029-0.37500029 0.15000029-0.28125 0.09375029-0.5625 0.18749971-0.80624971 0.29999971-0.09375029 0.07499971-0.18749971 0.07499971-0.26250029 0.1125-42.93749971 16.70625-67.23749971 78.39375029-118.55625029 175.87500029-4.74374971 18.31875029-8.36250029 36.91874971-10.83749942 55.66874942h2.75625c7.74375029 0 9.93750029-0.07499971 18.82499942-0.07499971h8.62500058c0.61875-0.07499971 1.25624971-0.07499971 1.89374942-0.13124971h0.13125058c0.26250029 0 0.52499971-0.07499971 0.7875-0.07500058h0.18749971c0.28125 0 0.60000029-0.07499971 0.93750029-0.1125 40.12499971-84.9375 83.60624971-152.51249971 126.93749942-193.1625 4.74374971-10.63125 9.45-18.74999971 14.58750058-24.89999942a47.38124971 47.38124971 0 0 0-9.97500058-12.24375029s-0.09375029 0-0.1125-0.07499971l-0.59999942-0.28125-0.61875-0.31875029a6.88124971 6.88124971 0 0 1-0.58125058-0.28125c-0.26250029-0.07499971-0.46874971-0.18749971-0.69374971-0.28125l-0.5625-0.225a23.71875029 23.71875029 0 0 1-1.125-0.46874971l-0.46874971-0.18750058a16.72499971 16.72499971 0 0 1-0.86250058-0.3375c-0.13124971-0.07499971-0.29999971-0.09375029-0.45-0.14999942l-1.18125-0.37500029h-0.09374942c-0.45-0.16875-0.9-0.28125-1.36875058-0.39375-0.1125-0.07499971-0.18749971-0.07499971-0.29999971-0.09375029l-1.14374971-0.31874942c-0.09375029 0-0.18749971-0.07499971-0.26250029-0.07500058a41.13749971 41.13749971 0 0 0-2.86875-0.61875c-0.09375029 0-0.18749971-0.07499971-0.29999971-0.07499971a17.15625 17.15625 0 0 0-1.2375-0.18749971c-0.09375029-0.09375029-0.15000029-0.09375029-0.24375058-0.09375029a33.24375 33.24375 0 0 0-1.4625-0.18749971h-0.26249942c-0.37500029-0.07499971-0.74999971-0.07499971-1.125-0.13125058-0.61875 0.09375029-1.21875029 0.1125-1.8 0.18750058" fill="#0D82CA" p-id="4133"></path><path d="M678.725 294.12500029c-9.86249971 31.1625-17.86875029 56.86875-24.82499971 78.03749971 27.09375029-36.74999971 53.79374971-82.96875 79.2-136.31249971-29.64375 9.16875-45.46874971 30.18750029-54.37500029 58.25624942z" fill="#05A1E6" p-id="4134"></path><path d="M654.7625 458.28125a81.58124971 81.58124971 0 0 1-4.12499971 1.95000029c52.68750029-23.15625029 115.55624971-115.04999971 145.66874942-229.46250058h-6.11249942c-69.14999971 121.76250029-91.38750029 203.24999971-135.43125029 227.51250029z" fill="#38A7E4" p-id="4135"></path><path d="M620.35624971 448.06249971c11.45625029-13.79999971 20.8125-37.25624971 33.56250029-75.89999971-14.71875029 19.9125-29.53125 37.03124971-44.34374971 51.00000029 0 0.07499971 0 0.07499971-0.07500058 0.1125 3.22499971 9.5625 6.76874971 17.98125029 10.81875058 24.78749942" fill="#079AE1" p-id="4136"></path><path d="M620.35624971 448.06249971a46.78125029 46.78125029 0 0 1-15.69375 12.54375 44.8875 44.8875 0 0 0 18.69375058 5.21250029h0.16875c0.41249971 0 0.82500029 0 1.27499942 0.07499971h4.275c0.16875 0 0.31875029 0 0.48750029-0.07499971 0.29999971 0 0.63749971 0 0.93750029-0.07499971h0.46874971c0.3375 0 0.69374971-0.07499971 1.03124971-0.1125h0.09375029c0.09375029 0 0.18749971-0.07499971 0.29999971-0.07500058l1.10625029-0.16875h0.31875029l1.2375-0.18749971h0.18749971c0.84375-0.16875 1.64999971-0.31875029 2.475-0.52499971-6.80625-2.43749971-12.50624971-8.25000029-17.39999971-16.50000058" fill="#1969BC" p-id="4137"></path><path d="M523.17500029 465.89374971c4.95 0 9.93750029-0.46874971 14.92499971-1.42499971 4.63124971-0.82500029 9.26250029-2.08125 13.91249971-3.67499971a51.03749971 51.03749971 0 0 0 22.6125 5.09999942h-51.44999942zM574.62499971 465.89374971c12.18750029 0 21.825-1.40625 30.01875029-5.2875a44.90624971 44.90624971 0 0 0 18.71250029 5.21250029h0.16875c0.39375 0 0.82500029 0 1.25624971 0.09375029h1.48124971-51.67499942 0.03749942z" fill="#1E5CB3" p-id="4138"></path><path d="M626.3 465.89374971h2.8125c0.16875 0 0.31875029 0 0.48750029-0.07499971 0.29999971 0 0.63749971 0 0.95625-0.07499971h0.46874971c0.31875029 0 0.675-0.07499971 1.0125-0.1125h0.09375029c0.09375029 0 0.18749971-0.07499971 0.29999971-0.07500058 0.37500029-0.07499971 0.74999971-0.1125 1.10625029-0.14999942 0.1125 0 0.20625029 0 0.3375-0.09375029l1.2375-0.18749971h0.18749971c0.84375-0.15000029 1.64999971-0.31875029 2.475-0.50625 2.40000029 0.86249971 4.96874971 1.31249971 7.5375 1.31249971l-18.99375029 0.05625-0.01874971-0.09375029z" fill="#1D60B5" p-id="4139"></path><path d="M609.5375 423.27500029v-0.07500058c-5.21250029 4.93125029-10.63125 9.60000029-16.25625 14.04375029a186.43124971 186.43124971 0 0 1-8.49375 6.28125029c2.38124971 2.8125 4.79999971 5.43750029 7.35000029 7.83749971 3.88125 3.69375029 8.02500029 6.82499971 12.54375 9.225a46.575 46.575 0 0 0 15.69375-12.54375c-4.05-6.80625-7.59375-15.22500029-10.81875058-24.76874971" fill="#175FAB" p-id="4140"></path><path d="M770.90000029 230.76874971H740.18750029l-4.85625058 0.24375058-2.25 4.78125c-25.425 53.34374971-52.12500029 99.5625-79.2 136.31249971-12.75000029 38.64375-22.10625 62.1-33.56249942 75.89999971 4.89375 8.25000029 10.61250029 14.02499971 17.38125 16.50000058 0.18749971-0.09375029 0.37500029-0.09375029 0.54374942-0.13125058h0.09375029c0.13124971 0 0.26250029-0.07499971 0.37500029-0.07499971l0.86249971-0.20625029 0.50625-0.14999942 0.74999971-0.18750058c0.16875-0.07499971 0.31875029-0.1125 0.48750029-0.13124971l1.125-0.3375a3.31875 3.31875 0 0 1 0.5625-0.18749971c0.20625029-0.07499971 0.43125029-0.13124971 0.63749971-0.225 0.225-0.07499971 0.45-0.1125 0.63750058-0.18750058 0.18749971-0.09375029 0.37500029-0.15000029 0.54374942-0.20624942l1.31250058-0.46875058c0.13124971 0 0.24374971-0.1125 0.37499942-0.13124971 0.26250029-0.1125 0.54375029-0.18749971 0.80625058-0.31875029 0.09375029-0.07499971 0.225-0.07499971 0.35624971-0.1125 0.93750029-0.37500029 1.87499971-0.76875029 2.83124971-1.19999971h0.1125c1.38750029-0.61875 2.75625-1.25624971 4.12500058-1.95000029 44.06249971-24.26249971 66.28124971-105.75 135.45-227.51249942h-19.31250058z" fill="#1C87CC" p-id="4141"></path><path d="M388.475 236.13125029c0.1125 0 0.18749971 0 0.31875029 0.07499971 0.26250029 0 0.52499971 0 0.7875 0.07499971h0.26249942l1.48125058 0.18750058a29.56875029 29.56875029 0 0 0 1.48124971 0.28125c0.07499971 0 0.18749971 0.07499971 0.29999971 0.07499971 0.93750029 0.18749971 1.9125 0.37500029 2.85000029 0.63749971 0.09375029 0 0.18749971 0.07499971 0.24374971 0.07500058l1.16250029 0.31874942c0.1125 0 0.18749971 0.07499971 0.29999971 0.09375029a20.45625029 20.45625029 0 0 1 1.4625 0.45l1.18125 0.39375c0.16875 0.09375029 0.31875029 0.1125 0.45 0.15000029l0.86250058 0.35624971c0.15000029 0 0.31875029 0.09375029 0.48749942 0.15000029 0.37500029 0.18749971 0.74999971 0.31875029 1.125 0.46874971 0.18749971 0.07499971 0.37500029 0.18749971 0.5625 0.24374971a37.6875 37.6875 0 0 0 1.27500029 0.5625l0.60000029 0.30000058c4.89375 2.38124971 9.41249971 5.55000029 13.59374942 9.37499942 1.50000029-1.53749971 3.11249971-2.98125 4.8375-4.31249942a53.62499971 53.62499971 0 0 0-35.62499971-9.84375" fill="#7DCBEC" p-id="4142"></path><path d="M419.26249971 250.30625029c2.62500029 2.43749971 5.0625 5.02499971 7.33125058 7.79999942 2.19375-1.53749971 4.44375-2.99999971 6.71249971-4.42499942a70.35000029 70.35000029 0 0 0-9.225-7.68750029c-1.72500029 1.31249971-3.31875 2.75625-4.81875029 4.31250029" fill="#5EC5ED" p-id="4143"></path><path d="M388.45625029 236.13125029a53.68124971 53.68124971 0 0 1 35.62499971 9.86249971c9.65625029-7.49999971 21.31875-10.125 37.51875-10.125h-78.45000029c1.8 0 3.56249971 0.09375029 5.30625058 0.26250029z" fill="#55C1EA" p-id="4144"></path><path d="M461.6 235.86875c-16.2 0-27.86249971 2.62500029-37.50000029 10.125 3.28124971 2.30625 6.37499971 4.87500029 9.18750058 7.68750029 13.44375-8.39999971 26.75625029-13.98750029 39.88125-16.40625029 4.91249971-0.93750029 9.9-1.40625 14.90625-1.40625h-26.47500029z" fill="#7ACCEC" p-id="4145"></path><path d="M653.90000029 372.18124971c6.975-21.18750029 14.94375029-46.87499971 24.84374942-78.075 8.92500029-28.08749971 24.69375-49.08750029 54.3375-58.25624942 0.7875-1.575 1.53749971-3.18750029 2.28750029-4.78125-48.31875 2.85000029-70.91250029 27.07499971-82.27500029 62.96249971-19.87499971 62.64375029-31.91249971 103.25625029-43.49999971 129.13125029 14.81249971-13.95 29.60624971-31.08750029 44.30625029-50.98125058z" fill="#37ABE7" p-id="4146"></path><path d="M724.81249971 449.18749971h-5.47499971v16.80000029h-2.25v-16.78124971h-5.49375029v-2.00625029h13.21875v2.00625029zM747.21875029 465.9875h-2.21250058v-12.61874971c0-0.99375029 0.07499971-2.21249971 0.18750058-3.63750029a12.89999971 12.89999971 0 0 1-0.60000029 1.83750029l-6.48749971 14.41874971h-1.08750058l-6.50624942-14.32500029a9.9 9.9 0 0 1-0.58125058-1.93124971h-0.07499971c0.07499971 0.74999971 0.09375029 1.96875 0.09375029 3.67499971v12.56250058h-2.1375v-18.75000058h2.96249942l5.83125029 13.08750029a16.81875 16.81875 0 0 1 0.86249971 2.25h0.09375029a55.6875 55.6875 0 0 1 0.91874971-2.30625l5.9625-13.05h2.8125v18.7875h-0.03749942z" fill="#000000" p-id="4147"></path></svg>
