<svg t="1706348715271" class="icon" viewBox="0 0 1024 1024" version="1.1" xmlns="http://www.w3.org/2000/svg" p-id="8310"
     width="128" height="128">
    <path d="M512 0C229.842824 0 0 229.481412 0 512c0 282.157176 229.481412 512 512 512s512-229.481412 512-512S794.157176 0 512 0z m0 933.436235c-41.140706 0-95.262118-81.92-123.753412-221.184l247.160471 0.361412c-28.16 138.917647-82.266353 220.822588-123.407059 220.822588z m-137.110588-311.386353c-3.614118-34.635294-5.421176-71.439059-5.421177-110.411294 0-40.779294 2.168471-79.375059 6.144-115.456l273.498353 0.361412c3.975529 35.719529 5.767529 74.315294 5.76753 115.094588 0 39.333647-1.807059 76.137412-5.406118 110.772706l-274.582588-0.361412zM512 90.202353c40.779294 0 94.177882 80.459294 122.684235 216.485647l-245.36847-0.361412C417.822118 170.315294 471.582118 90.202353 512 90.202353z m227.312941 306.703059l178.597647 0.361412A415.698824 415.698824 0 0 1 933.797647 512c0 38.610824-5.059765 75.776-14.802823 111.134118l-178.959059-0.361412c3.252706-36.080941 5.059765-73.246118 5.059764-110.772706 0-39.333647-2.168471-77.929412-5.782588-115.094588z m141.086118-89.856l-153.705412-0.361412c-9.743059-51.952941-23.100235-99.945412-40.056471-141.793882a416.045176 416.045176 0 0 0-21.293176-45.824 421.857882 421.857882 0 0 1 215.04 187.979294zM358.656 119.070118c-7.574588 14.064941-14.441412 29.590588-21.293176 45.824-16.956235 41.863529-30.313412 89.479529-40.056471 141.43247L143.962353 305.995294c47.631059-84.434824 123.407059-151.190588 214.693647-186.910118zM106.435765 396.182588l178.251294 0.361412a1207.913412 1207.913412 0 0 0-5.421177 115.456c0 37.526588 1.807059 74.330353 5.059765 110.411294l-176.790588-0.361412v8.658824A415.909647 415.909647 0 0 1 90.548706 512a408.259765 408.259765 0 0 1 15.872-115.817412z m34.635294 315.708236l155.527529 0.361411c9.728 53.76 23.446588 103.198118 40.764236 146.492236 6.490353 16.594824 13.703529 31.759059 21.293176 45.824-93.093647-36.442353-170.315294-105.351529-217.569882-192.677647zM665.359059 904.583529c7.574588-14.064941 14.441412-29.590588 21.293176-45.824 17.317647-42.932706 31.021176-92.370824 40.764236-145.769411l155.151058 0.361411a423.740235 423.740235 0 0 1-217.20847 191.247059z"
          fill="#0084FF"></path>
</svg>
