<?xml version="1.0" standalone="no"?><!DOCTYPE svg PUBLIC "-//W3C//DTD SVG 1.1//EN" "http://www.w3.org/Graphics/SVG/1.1/DTD/svg11.dtd"><svg t="1680367461778" class="icon" viewBox="0 0 1024 1024" version="1.1" xmlns="http://www.w3.org/2000/svg" p-id="3231" xmlns:xlink="http://www.w3.org/1999/xlink" width="32" height="32"><path d="M512 124.01360545a382.65306122 382.65306122 0 1 1 0 765.30612244A382.65306122 382.65306122 0 0 1 512 124.01360545z m-36.54336733 275.98852041a142.05994898 142.05994898 0 0 0-89.44515309 55.19770408 125.17538266 125.17538266 0 0 0-26.97704081 93.55867346c2.53507654 28.22066326 16.98022959 54.0497449 39.7002551 70.93431123a113.83928571 113.83928571 0 0 0 85.85778061 21.04591837A133.3067602 133.3067602 0 0 0 576.38137754 586.5454932c5.26147959-6.98341837 9.75765306-14.4929847 13.48852042-22.48086734 5.1179847 19.61096939 15.9757653 37.21301021 31.18622448 50.51020407 22.19387756 18.65433673 50.46237245 28.6989796 79.49617348 28.02933674 8.32270408-1.00446428 16.88456633-1.19579082 25.39859695-2.82206633a146.22130103 146.22130103 0 0 0 76.72193876-40.89604593 123.78826531 123.78826531 0 0 0 35.73022959-108.2908163 99.34630103 99.34630103 0 0 0-45.10522959-71.12563778 119.19642858 119.19642858 0 0 0-90.9757653-16.26275508 134.50255101 134.50255101 0 0 0-89.39732143 53.23660713c-9.61415816 12.4362245-17.02806124 26.4987245-21.85905613 41.51785715H488.17984694a8.56186225 8.56186225 0 0 0-7.94005102 5.16581631c-4.4005102 8.32270408-12.14923469 24.82461736-16.31058674 34.77359695-2.2002551 5.54846938 0 9.56632652 6.17028061 9.56632654H531.61096939c-3.15688775 4.5440051-5.73979592 8.32270408-8.70535714 11.8622449-13.20153062 15.9757653-33.76913265 23.91581633-54.24107143 21.04591837a50.22321429 50.22321429 0 0 1-43.14413266-50.03188777 68.35140306 68.35140306 0 0 1 32.62117347-60.7940051 55.62818878 55.62818878 0 0 1 57.78061225-4.78316327c5.88329082 2.86989796 11.00127551 7.03125001 15.11479592 12.14923471 3.97002551 4.78316327 4.35267857 4.5440051 9.08801021 3.15688774l53.66709182-13.87117346c3.82653062-1.00446428 5.16581632-2.63073981 3.20471941-5.59630103a99.34630103 99.34630103 0 0 0-36.97385205-44.91390305 109.86926021 109.86926021 0 0 0-84.6619898-15.68877551z m275.8450255 68.30357142a52.61479593 52.61479593 0 0 1 23.15051018 35.53890306c0.66964285 3.49170919 0.95663265 7.03125001 0.95663267 10.52295919a69.92984693 69.92984693 0 0 1-40.51339286 60.26785714c-16.11926021 8.60969388-35.29974489 9.27933673-52.04081632 1.9132653a53.04528061 53.04528061 0 0 1-29.41645409-59.55038264 70.12117348 70.12117348 0 0 1 56.05867347-55.62818879 52.61479593 52.61479593 0 0 1 41.80484694 6.93558674zM333.01403061 518.76806974H269.25446427a4.78316327 4.78316327 0 0 0-3.20471937 1.7697704l-4.35267857 8.13137755v1.81760204h71.50829082a2.58290816 2.58290816 0 0 0 2.2002551-2.20025509V520.53784014a2.00892858 2.00892858 0 0 0-2.39158164-1.7697704z m7.17474491-29.41645409H194.49362245a4.97448979 4.97448979 0 0 0-3.58737246 1.57844387l-6.93558673 8.60969388v1.53061225h150.76530612a2.77423469 2.77423469 0 0 0 3.01339287-1.96109694l2.58290816-7.55739796a1.57844388 1.57844388 0 0 0-0.23915817-2.2002551z m16.2627551-29.60778061l-112.88265308 0.23915816a4.35267857 4.35267857 0 0 0-3.5395408 1.57844388l-6.74426021 8.75318877v1.57844388H348.89413265a5.16581632 5.16581632 0 0 0 3.2047194-1.81760204l5.35714284-8.3227041c0-0.95663265 0-2.00892858-1.00446427-2.00892855z" fill="#40A9FF" p-id="3232"></path></svg>