<?xml version="1.0" standalone="no"?><!DOCTYPE svg PUBLIC "-//W3C//DTD SVG 1.1//EN" "http://www.w3.org/Graphics/SVG/1.1/DTD/svg11.dtd"><svg t="1680364960145" class="icon" viewBox="0 0 1024 1024" version="1.1" xmlns="http://www.w3.org/2000/svg" p-id="2816" xmlns:xlink="http://www.w3.org/1999/xlink" width="32" height="32"><path d="M71.7826087 71.7826087h880.4347826v880.4347826H71.7826087z" fill="#EC494C" p-id="2817"></path><path d="M462.46925489 523.06832311H511.37111765l-25.82818287-40.78299702L438.12523317 556.02173913h-21.60838534l57.7125-88.52771739a13.92344757 13.92344757 0 0 1 22.43850894-0.15093181L554.57531031 556.02173913h-21.62096248l-10.13757802-16.47670844h-49.53703367l-10.81048124-16.47670758z m224.30333803 16.47670757V462.65163043h-18.33819863v84.4085405c0.01257801 2.35201876 0.98105627 4.59083887 2.67274893 6.2259318 1.79231329 1.76086957 4.20722038 2.72934783 6.71645951 2.71676982h83.54697144l10.77903751-16.45784186H686.77259292z m-303.12111764-13.76622633a31.56358696 31.56358696 0 1 0-1e-8-63.12717392H303.48159974V556.02173913h18.31304348V479.10947229h60.59906821a15.25038833 15.25038833 0 0 1 15.42647527 15.0931671 14.97367988 14.97367988 0 0 1-4.51537341 10.69099403 15.58998424 15.58998424 0 0 1-10.91110186 4.40217391h-51.61863343L385.44378857 556.02173913h26.62057503l-36.78959677-30.24293478h8.37670844z m-192.92212745 30.24922335a47.83276385 47.83276385 0 0 1-41.26094758-23.34409888 45.8643636 45.8643636 0 0 1 0-46.67562149 47.79503069 47.79503069 0 0 1 41.26094758-23.33781032h55.37934782a48.1094723 48.1094723 0 0 1 33.68291901 13.67818287 46.04045056 46.04045056 0 0 1 0 66.03260869 48.14720459 48.14720459 0 0 1-33.68291901 13.64673913h-55.37934782z m54.14045054-16.45155243a30.52593181 30.52593181 0 0 0 30.81521739-30.21777962 29.90962746 29.90962746 0 0 0-9.03074594-21.3819872 31.14852473 31.14852473 0 0 0-21.80962659-8.85465901h-52.92041987a30.23035677 30.23035677 0 1 0 0 60.44813727h52.92041987l0.02515514 0.00628857zM592.79875789 556.02173913a46.67562149 46.67562149 0 0 1 0-93.35124211h65.8125L647.83850894 479.10947229h-53.7819872a30.23035677 30.23035677 0 1 0 0 60.44813641h66.03260869L649.33524807 556.02173913h-56.53649018z m224.11467392-16.44526385a30.73975193 30.73975193 0 0 1-29.65807504-21.96684782h78.31467391l10.79161553-16.45784187h-89.13144459a30.75232907 30.75232907 0 0 1 29.68323017-22.01086957h53.76312063l10.7979041-16.45784186h-65.81878858a47.79503069 47.79503069 0 0 0-41.25465899 23.33781118 45.8643636 45.8643636 0 0 0 0 46.67562063 47.83276385 47.83276385 0 0 0 41.254659 23.33781116h56.54277963l10.7664595-16.44526471h-66.0326087l-0.01886657-0.01257715z m74.37158396-66.9633538a8.17546547 8.17546547 0 0 1 4.14433206-7.32647528c2.64130435-1.52189428 5.89891304-1.52189428 8.54650596 0 2.62243776 1.49673913 4.21350895 4.31413043 4.13804348 7.33276387a8.42701876 8.42701876 0 0 1-16.82888151 0v-0.00628858z m7.41451877-6.19448806a8.36413043 8.36413043 0 0 1 3.14440919 0.31444075 3.35194076 3.35194076 0 0 1 2.33315217 3.30163044 4.59083887 4.59083887 0 0 1-0.12577579 0.96218968 3.24503068 3.24503068 0 0 1-1.49045054 2.01871143 1.84891304 1.84891304 0 0 1-0.54083889 0.27041901l2.78594758 4.89270161h-2.69161467l-2.4463508-4.49650596h-1.62251578v4.49650596h-2.36459676v-11.76009292h3.01863429z m0.8301236 5.31405329a2.27655243 2.27655243 0 0 0 1.99984484-0.73579242 1.69798124 1.69798124 0 0 0 0.27041901-1.0125 1.5344723 1.5344723 0 0 0-0.89930051-1.4212728 6.13159974 6.13159974 0 0 0-2.20108695-0.20753155h-0.66661552v3.37709677h1.49673913z" fill="#FFFFFF" p-id="2818"></path></svg>