<?xml version="1.0" standalone="no"?><!DOCTYPE svg PUBLIC "-//W3C//DTD SVG 1.1//EN" "http://www.w3.org/Graphics/SVG/1.1/DTD/svg11.dtd"><svg t="1680367609232" class="icon" viewBox="0 0 1024 1024" version="1.1" xmlns="http://www.w3.org/2000/svg" p-id="3382" xmlns:xlink="http://www.w3.org/1999/xlink" width="32" height="32"><path d="M135.90914916 135.90914916h753.98948136v753.98948136H135.90914916z" fill="#E26EFF" p-id="3383"></path><path d="M175.28059233 175.00806275h673.62050172v673.6205017H175.28059233z" fill="#2A0033" p-id="3384"></path><path d="M313.26232986 338.14428252h47.05677796V673.51921081h-47.05677796V338.14428252z m24.21879731 160.52901994h107.25856704c10.14718551 0 19.06798783-2.38009186 26.75332261-7.14935989 7.68533479-4.76018372 13.64464875-11.53708649 17.87794189-20.29437104 4.22420884-8.76636887 6.34085542-18.8317955 6.3408554-30.21444853 0-11.53708649-2.11664658-21.68427201-6.3408554-30.45064087-4.23329316-8.76636887-10.19260713-15.57052461-17.87794189-20.41246721-7.69441909-4.8419426-16.60613708-7.26745605-26.75332261-7.26745605H337.48112717v-44.74936066h105.64155808c19.98550416 0 37.60000076 4.26963044 52.81623686 12.79980697s27.0258522 20.56690064 35.41067962 36.10108796c8.37574312 15.53418733 12.57269897 33.52114107 12.57269898 53.96994553 0 20.44880447-4.18787155 38.40850525-12.57269898 53.86093369-8.38482742 15.45242844-20.1853592 27.41647798-35.41067962 35.86489563-15.22532044 8.45750199-32.83073274 12.68171081-52.81623688 12.68171082H337.48112717v-44.74027635zM614.82541885 434.09287109h47.05677796V673.51921081h-47.05677796V434.09287109z m116.01585159 45.21266099c-6.30451813-2.61628418-13.60831148-3.92442627-21.91137999-3.92442627-14.91645357 0-26.48987732 4.11519699-34.71118699 12.33650664-8.230394 8.230394-12.33650666 19.64938431-12.33650665 34.25697098l-4.84194259-46.1301773c7.38555221-14.29871979 16.91500397-25.40884323 28.59743958-33.33037034 11.68243561-7.9215271 24.60033874-11.88229065 38.7537094-11.88229064 10.91935273 0 20.79400864 1.5806717 29.64213638 4.73293076 8.83904342 3.15225906 16.5697998 7.80343094 23.18318481 13.95351562l-30.67774885 41.51534272c-4.1606186-5.06905061-9.39318696-8.91171799-15.69770508-11.52800217z" fill="#E371FF" p-id="3385"></path></svg>